<svg width="343" height="24" viewBox="0 0 343 24" fill="none" xmlns="http://www.w3.org/2000/svg">
<path d="M7.112 10.358H2.352V6.2H1.05V16H2.352V11.59H7.112V16H8.4V6.2H7.112V10.358ZM16.2793 15.118C16.9933 14.404 17.3573 13.536 17.3573 12.5C17.3573 11.464 16.9933 10.596 16.2793 9.882C15.5653 9.168 14.6833 8.818 13.6613 8.818C12.6393 8.818 11.7573 9.168 11.0433 9.882C10.3293 10.596 9.97927 11.464 9.97927 12.5C9.97927 13.536 10.3293 14.404 11.0433 15.118C11.7573 15.832 12.6393 16.182 13.6613 16.182C14.6833 16.182 15.5653 15.832 16.2793 15.118ZM13.6613 14.992C12.9753 14.992 12.3873 14.754 11.9113 14.278C11.4353 13.802 11.1973 13.214 11.1973 12.5C11.1973 11.786 11.4353 11.198 11.9113 10.722C12.3873 10.246 12.9753 10.008 13.6613 10.008C14.3613 10.008 14.9493 10.246 15.4253 10.722C15.9013 11.198 16.1393 11.786 16.1393 12.5C16.1393 13.214 15.9013 13.802 15.4253 14.278C14.9493 14.754 14.3613 14.992 13.6613 14.992ZM26.3531 8.818C25.3731 8.818 24.6451 9.21 24.1551 10.008C23.7211 9.21 23.0351 8.818 22.0971 8.818C21.1871 8.818 20.4871 9.196 20.0111 9.938V9H18.7931V16H20.0111V12.108C20.0111 10.694 20.7811 9.98 21.8031 9.98C22.7131 9.98 23.2871 10.61 23.2871 11.688V16H24.5051V12.108C24.5051 10.666 25.1771 9.98 26.2271 9.98C27.1651 9.98 27.7671 10.61 27.7671 11.688V16H28.9851V11.646C28.9851 9.91 27.9211 8.818 26.3531 8.818ZM37.394 13.06C37.422 12.878 37.436 12.696 37.436 12.514C37.436 11.492 37.114 10.624 36.456 9.91C35.812 9.182 34.972 8.818 33.95 8.818C32.872 8.818 31.99 9.168 31.304 9.868C30.618 10.568 30.282 11.45 30.282 12.5C30.282 13.564 30.632 14.446 31.318 15.146C32.018 15.832 32.928 16.182 34.034 16.182C35.406 16.182 36.428 15.65 37.114 14.6L36.078 14.012C35.658 14.698 34.986 15.034 34.062 15.034C32.732 15.034 31.766 14.306 31.528 13.06H37.394ZM33.95 9.966C35.07 9.966 35.994 10.666 36.204 11.996H31.528C31.738 10.764 32.648 9.966 33.95 9.966Z" fill="#667479"/>
<path d="M55 9L58 12L55 15" stroke="#667479" stroke-width="1.5" stroke-linecap="round" stroke-linejoin="round"/>
<path d="M75.05 6.2V16H78.872C80.202 16 81.308 15.524 82.19 14.586C83.072 13.634 83.52 12.472 83.52 11.1C83.52 9.728 83.072 8.566 82.19 7.628C81.308 6.676 80.202 6.2 78.872 6.2H75.05ZM76.352 14.768V7.432H78.872C79.866 7.432 80.692 7.782 81.322 8.482C81.952 9.182 82.274 10.05 82.274 11.1C82.274 12.15 81.952 13.018 81.322 13.718C80.692 14.418 79.866 14.768 78.872 14.768H76.352ZM90.8808 15.118C91.5948 14.404 91.9588 13.536 91.9588 12.5C91.9588 11.464 91.5948 10.596 90.8808 9.882C90.1668 9.168 89.2848 8.818 88.2628 8.818C87.2408 8.818 86.3588 9.168 85.6448 9.882C84.9308 10.596 84.5808 11.464 84.5808 12.5C84.5808 13.536 84.9308 14.404 85.6448 15.118C86.3588 15.832 87.2408 16.182 88.2628 16.182C89.2848 16.182 90.1668 15.832 90.8808 15.118ZM88.2628 14.992C87.5768 14.992 86.9888 14.754 86.5128 14.278C86.0368 13.802 85.7988 13.214 85.7988 12.5C85.7988 11.786 86.0368 11.198 86.5128 10.722C86.9888 10.246 87.5768 10.008 88.2628 10.008C88.9628 10.008 89.5508 10.246 90.0268 10.722C90.5028 11.198 90.7408 11.786 90.7408 12.5C90.7408 13.214 90.5028 13.802 90.0268 14.278C89.5508 14.754 88.9628 14.992 88.2628 14.992ZM99.2047 10.204C98.6027 9.28 97.7207 8.818 96.5727 8.818C95.5787 8.818 94.7247 9.168 94.0387 9.882C93.3527 10.582 93.0027 11.436 93.0027 12.458C93.0027 13.48 93.3527 14.334 94.0387 15.048C94.7247 15.762 95.5787 16.112 96.5727 16.112C97.7067 16.112 98.5887 15.65 99.2047 14.712V15.706C99.2047 17.036 98.3227 17.848 96.8667 17.848C95.7327 17.848 94.9627 17.456 94.5847 16.672L93.5207 17.274C94.0947 18.38 95.2707 18.982 96.8387 18.982C97.8187 18.982 98.6587 18.688 99.3587 18.114C100.059 17.54 100.409 16.742 100.409 15.706V9H99.2047V10.204ZM99.2047 12.458C99.2047 13.172 98.9667 13.76 98.4907 14.236C98.0147 14.712 97.4267 14.95 96.7127 14.95C95.9987 14.95 95.4107 14.712 94.9347 14.236C94.4587 13.76 94.2207 13.172 94.2207 12.458C94.2207 11.758 94.4587 11.17 94.9347 10.694C95.4107 10.218 95.9987 9.98 96.7127 9.98C97.4267 9.98 98.0147 10.218 98.4907 10.694C98.9667 11.17 99.2047 11.758 99.2047 12.458Z" fill="#667479"/>
<path d="M119 9L122 12L119 15" stroke="#667479" stroke-width="1.5" stroke-linecap="round" stroke-linejoin="round"/>
<path d="M140.352 6.2H139.05V16H144.58V14.768H140.352V6.2ZM151.283 10.204C150.681 9.28 149.799 8.818 148.637 8.818C147.657 8.818 146.817 9.182 146.131 9.896C145.445 10.61 145.095 11.478 145.095 12.5C145.095 13.522 145.445 14.404 146.131 15.118C146.817 15.832 147.657 16.182 148.637 16.182C149.799 16.182 150.681 15.72 151.283 14.796V16H152.501V9H151.283V10.204ZM148.791 15.006C148.091 15.006 147.503 14.768 147.027 14.292C146.551 13.802 146.312 13.214 146.312 12.5C146.312 11.786 146.551 11.198 147.027 10.722C147.503 10.232 148.091 9.994 148.791 9.994C149.505 9.994 150.093 10.232 150.569 10.722C151.045 11.198 151.283 11.786 151.283 12.5C151.283 13.214 151.045 13.802 150.569 14.292C150.093 14.768 149.505 15.006 148.791 15.006ZM155.564 9H154.346V16H155.564V12.29C155.564 11.52 155.774 10.974 156.208 10.624C156.642 10.274 157.146 10.12 157.748 10.148V8.874C156.698 8.874 155.97 9.308 155.564 10.176V9ZM164.75 10.204C164.148 9.28 163.266 8.818 162.118 8.818C161.124 8.818 160.27 9.168 159.584 9.882C158.898 10.582 158.548 11.436 158.548 12.458C158.548 13.48 158.898 14.334 159.584 15.048C160.27 15.762 161.124 16.112 162.118 16.112C163.252 16.112 164.134 15.65 164.75 14.712V15.706C164.75 17.036 163.868 17.848 162.412 17.848C161.278 17.848 160.508 17.456 160.13 16.672L159.066 17.274C159.64 18.38 160.816 18.982 162.384 18.982C163.364 18.982 164.204 18.688 164.904 18.114C165.604 17.54 165.954 16.742 165.954 15.706V9H164.75V10.204ZM164.75 12.458C164.75 13.172 164.512 13.76 164.036 14.236C163.56 14.712 162.972 14.95 162.258 14.95C161.544 14.95 160.956 14.712 160.48 14.236C160.004 13.76 159.766 13.172 159.766 12.458C159.766 11.758 160.004 11.17 160.48 10.694C160.956 10.218 161.544 9.98 162.258 9.98C162.972 9.98 163.56 10.218 164.036 10.694C164.512 11.17 164.75 11.758 164.75 12.458ZM174.519 13.06C174.547 12.878 174.561 12.696 174.561 12.514C174.561 11.492 174.239 10.624 173.581 9.91C172.937 9.182 172.097 8.818 171.075 8.818C169.997 8.818 169.115 9.168 168.429 9.868C167.743 10.568 167.407 11.45 167.407 12.5C167.407 13.564 167.757 14.446 168.443 15.146C169.143 15.832 170.053 16.182 171.159 16.182C172.531 16.182 173.553 15.65 174.239 14.6L173.203 14.012C172.783 14.698 172.111 15.034 171.187 15.034C169.857 15.034 168.891 14.306 168.653 13.06H174.519ZM171.075 9.966C172.195 9.966 173.119 10.666 173.329 11.996H168.653C168.863 10.764 169.773 9.966 171.075 9.966ZM179.587 6.2V16H183.409C184.739 16 185.845 15.524 186.727 14.586C187.609 13.634 188.057 12.472 188.057 11.1C188.057 9.728 187.609 8.566 186.727 7.628C185.845 6.676 184.739 6.2 183.409 6.2H179.587ZM180.889 14.768V7.432H183.409C184.403 7.432 185.229 7.782 185.859 8.482C186.489 9.182 186.811 10.05 186.811 11.1C186.811 12.15 186.489 13.018 185.859 13.718C185.229 14.418 184.403 14.768 183.409 14.768H180.889ZM195.418 15.118C196.132 14.404 196.496 13.536 196.496 12.5C196.496 11.464 196.132 10.596 195.418 9.882C194.704 9.168 193.822 8.818 192.8 8.818C191.778 8.818 190.896 9.168 190.182 9.882C189.468 10.596 189.118 11.464 189.118 12.5C189.118 13.536 189.468 14.404 190.182 15.118C190.896 15.832 191.778 16.182 192.8 16.182C193.822 16.182 194.704 15.832 195.418 15.118ZM192.8 14.992C192.114 14.992 191.526 14.754 191.05 14.278C190.574 13.802 190.336 13.214 190.336 12.5C190.336 11.786 190.574 11.198 191.05 10.722C191.526 10.246 192.114 10.008 192.8 10.008C193.5 10.008 194.088 10.246 194.564 10.722C195.04 11.198 195.278 11.786 195.278 12.5C195.278 13.214 195.04 13.802 194.564 14.278C194.088 14.754 193.5 14.992 192.8 14.992ZM203.742 10.204C203.14 9.28 202.258 8.818 201.11 8.818C200.116 8.818 199.262 9.168 198.576 9.882C197.89 10.582 197.54 11.436 197.54 12.458C197.54 13.48 197.89 14.334 198.576 15.048C199.262 15.762 200.116 16.112 201.11 16.112C202.244 16.112 203.126 15.65 203.742 14.712V15.706C203.742 17.036 202.86 17.848 201.404 17.848C200.27 17.848 199.5 17.456 199.122 16.672L198.058 17.274C198.632 18.38 199.808 18.982 201.376 18.982C202.356 18.982 203.196 18.688 203.896 18.114C204.596 17.54 204.946 16.742 204.946 15.706V9H203.742V10.204ZM203.742 12.458C203.742 13.172 203.504 13.76 203.028 14.236C202.552 14.712 201.964 14.95 201.25 14.95C200.536 14.95 199.948 14.712 199.472 14.236C198.996 13.76 198.758 13.172 198.758 12.458C198.758 11.758 198.996 11.17 199.472 10.694C199.948 10.218 200.536 9.98 201.25 9.98C201.964 9.98 202.552 10.218 203.028 10.694C203.504 11.17 203.742 11.758 203.742 12.458Z" fill="#667479"/>
<path d="M223 9L226 12L223 15" stroke="#667479" stroke-width="1.5" stroke-linecap="round" stroke-linejoin="round"/>
<path d="M246.214 16.182C247.222 16.182 248.034 15.93 248.664 15.426C249.294 14.908 249.602 14.222 249.602 13.368C249.602 12.752 249.462 12.248 249.112 11.898C248.874 11.618 248.748 11.464 248.356 11.254C247.978 11.044 247.866 10.974 247.376 10.792C247.138 10.694 246.97 10.638 246.858 10.596L246.284 10.414C245.528 10.176 244.996 9.938 244.688 9.714C244.38 9.49 244.226 9.168 244.226 8.734C244.226 7.838 244.94 7.278 246.004 7.278C247.068 7.278 247.81 7.782 248.23 8.79L249.322 8.16C248.748 6.872 247.558 6.018 246.004 6.018C245.15 6.018 244.422 6.27 243.82 6.774C243.218 7.264 242.924 7.936 242.924 8.79C242.924 9.504 243.218 10.078 243.54 10.428C243.694 10.596 243.932 10.764 244.254 10.932C244.576 11.086 244.856 11.212 245.066 11.296L246.004 11.604C246.83 11.87 247.432 12.108 247.782 12.346C248.132 12.584 248.314 12.934 248.314 13.396C248.314 14.306 247.586 14.908 246.242 14.908C244.884 14.908 244.002 14.32 243.624 13.13L242.504 13.774C243.022 15.272 244.38 16.182 246.214 16.182ZM254.504 8.818C253.482 8.818 252.726 9.21 252.236 10.008V6.2H251.018V16H252.236V12.29C252.236 10.722 253.048 9.98 254.266 9.98C255.344 9.98 256.002 10.638 256.002 11.772V16H257.22V11.702C257.22 9.924 256.142 8.818 254.504 8.818ZM259.536 8.132C259.984 8.132 260.348 7.768 260.348 7.32C260.348 6.872 259.984 6.494 259.536 6.494C259.074 6.494 258.71 6.872 258.71 7.32C258.71 7.768 259.074 8.132 259.536 8.132ZM260.138 16V9H258.92V16H260.138ZM265.86 8.818C264.698 8.818 263.816 9.28 263.214 10.204V6.2H261.996V16H263.214V14.796C263.816 15.72 264.698 16.182 265.86 16.182C266.84 16.182 267.68 15.832 268.366 15.118C269.052 14.404 269.402 13.522 269.402 12.5C269.402 11.478 269.052 10.61 268.366 9.896C267.68 9.182 266.84 8.818 265.86 8.818ZM265.706 15.006C264.992 15.006 264.404 14.768 263.928 14.292C263.452 13.802 263.214 13.214 263.214 12.5C263.214 11.786 263.452 11.198 263.928 10.722C264.404 10.232 264.992 9.994 265.706 9.994C266.406 9.994 266.994 10.232 267.47 10.722C267.946 11.198 268.184 11.786 268.184 12.5C268.184 13.214 267.946 13.802 267.47 14.292C266.994 14.768 266.406 15.006 265.706 15.006ZM276.652 10.204C276.05 9.28 275.168 8.818 274.006 8.818C273.026 8.818 272.186 9.182 271.5 9.896C270.814 10.61 270.464 11.478 270.464 12.5C270.464 13.522 270.814 14.404 271.5 15.118C272.186 15.832 273.026 16.182 274.006 16.182C275.168 16.182 276.05 15.72 276.652 14.796V16H277.87V9H276.652V10.204ZM274.16 15.006C273.46 15.006 272.872 14.768 272.396 14.292C271.92 13.802 271.682 13.214 271.682 12.5C271.682 11.786 271.92 11.198 272.396 10.722C272.872 10.232 273.46 9.994 274.16 9.994C274.874 9.994 275.462 10.232 275.938 10.722C276.414 11.198 276.652 11.786 276.652 12.5C276.652 13.214 276.414 13.802 275.938 14.292C275.462 14.768 274.874 15.006 274.16 15.006ZM283.341 16H284.643V6.2H283.341V16ZM290.105 8.818C289.083 8.818 288.327 9.21 287.837 10.008V9H286.619V16H287.837V12.29C287.837 10.722 288.649 9.98 289.867 9.98C290.945 9.98 291.603 10.638 291.603 11.772V16H292.821V11.702C292.821 9.924 291.743 8.818 290.105 8.818ZM299.352 12.71C299.352 14.278 298.54 15.02 297.322 15.02C296.244 15.02 295.586 14.362 295.586 13.228V9H294.368V13.298C294.368 15.076 295.446 16.182 297.084 16.182C298.106 16.182 298.862 15.79 299.352 14.992V16H300.57V9H299.352V12.71ZM309.214 16.182C310.222 16.182 311.034 15.93 311.664 15.426C312.294 14.908 312.602 14.222 312.602 13.368C312.602 12.752 312.462 12.248 312.112 11.898C311.874 11.618 311.748 11.464 311.356 11.254C310.978 11.044 310.866 10.974 310.376 10.792C310.138 10.694 309.97 10.638 309.858 10.596L309.284 10.414C308.528 10.176 307.996 9.938 307.688 9.714C307.38 9.49 307.226 9.168 307.226 8.734C307.226 7.838 307.94 7.278 309.004 7.278C310.068 7.278 310.81 7.782 311.23 8.79L312.322 8.16C311.748 6.872 310.558 6.018 309.004 6.018C308.15 6.018 307.422 6.27 306.82 6.774C306.218 7.264 305.924 7.936 305.924 8.79C305.924 9.504 306.218 10.078 306.54 10.428C306.694 10.596 306.932 10.764 307.254 10.932C307.576 11.086 307.856 11.212 308.066 11.296L309.004 11.604C309.83 11.87 310.432 12.108 310.782 12.346C311.132 12.584 311.314 12.934 311.314 13.396C311.314 14.306 310.586 14.908 309.242 14.908C307.884 14.908 307.002 14.32 306.624 13.13L305.504 13.774C306.022 15.272 307.38 16.182 309.214 16.182ZM320.738 13.06C320.766 12.878 320.78 12.696 320.78 12.514C320.78 11.492 320.458 10.624 319.8 9.91C319.156 9.182 318.316 8.818 317.294 8.818C316.216 8.818 315.334 9.168 314.648 9.868C313.962 10.568 313.626 11.45 313.626 12.5C313.626 13.564 313.976 14.446 314.662 15.146C315.362 15.832 316.272 16.182 317.378 16.182C318.75 16.182 319.772 15.65 320.458 14.6L319.422 14.012C319.002 14.698 318.33 15.034 317.406 15.034C316.076 15.034 315.11 14.306 314.872 13.06H320.738ZM317.294 9.966C318.414 9.966 319.338 10.666 319.548 11.996H314.872C315.082 10.764 315.992 9.966 317.294 9.966ZM326.044 8.818C324.882 8.818 324 9.28 323.398 10.204V9H322.18V18.8H323.398V14.796C324 15.72 324.882 16.182 326.044 16.182C327.024 16.182 327.864 15.832 328.55 15.118C329.236 14.404 329.586 13.522 329.586 12.5C329.586 11.478 329.236 10.61 328.55 9.896C327.864 9.182 327.024 8.818 326.044 8.818ZM325.89 15.006C325.176 15.006 324.588 14.768 324.112 14.292C323.636 13.802 323.398 13.214 323.398 12.5C323.398 11.786 323.636 11.198 324.112 10.722C324.588 10.232 325.176 9.994 325.89 9.994C326.59 9.994 327.178 10.232 327.654 10.722C328.13 11.198 328.368 11.786 328.368 12.5C328.368 13.214 328.13 13.802 327.654 14.292C327.178 14.768 326.59 15.006 325.89 15.006ZM331.655 8.132C332.103 8.132 332.467 7.768 332.467 7.32C332.467 6.872 332.103 6.494 331.655 6.494C331.193 6.494 330.829 6.872 330.829 7.32C330.829 7.768 331.193 8.132 331.655 8.132ZM332.257 16V9H331.039V16H332.257ZM339.911 10.204C339.309 9.28 338.427 8.818 337.265 8.818C336.285 8.818 335.445 9.182 334.759 9.896C334.073 10.61 333.723 11.478 333.723 12.5C333.723 13.522 334.073 14.404 334.759 15.118C335.445 15.832 336.285 16.182 337.265 16.182C338.427 16.182 339.309 15.72 339.911 14.796V16H341.129V9H339.911V10.204ZM337.419 15.006C336.719 15.006 336.131 14.768 335.655 14.292C335.179 13.802 334.941 13.214 334.941 12.5C334.941 11.786 335.179 11.198 335.655 10.722C336.131 10.232 336.719 9.994 337.419 9.994C338.133 9.994 338.721 10.232 339.197 10.722C339.673 11.198 339.911 11.786 339.911 12.5C339.911 13.214 339.673 13.802 339.197 14.292C338.721 14.768 338.133 15.006 337.419 15.006Z" fill="#667479"/>
</svg>
