<svg width="356" height="34" viewBox="0 0 356 34" fill="none" xmlns="http://www.w3.org/2000/svg">
<path d="M22 17L12 17M12 17L16 21M12 17L16 13" stroke="#002A48" stroke-width="2" stroke-linecap="round" stroke-linejoin="round"/>
<rect x="46" width="34" height="34" rx="8" fill="#003459"/>
<path d="M59.698 11.57L60.31 13.694L62.686 13.028V23H65.17V10.4H63.01L59.698 11.57Z" fill="#FDFDFD"/>
<path d="M112.91 23V20.606H108.176L110.642 18.14C112.028 16.754 112.712 15.422 112.712 14.108C112.712 12.902 112.298 11.93 111.488 11.228C110.678 10.508 109.688 10.148 108.554 10.148C106.772 10.148 105.188 11.084 104.396 12.812L106.484 14.036C106.934 13.046 107.636 12.56 108.59 12.56C109.544 12.56 110.228 13.208 110.228 14.198C110.228 14.864 109.742 15.71 108.788 16.718L104.486 21.146V23H112.91Z" fill="#002A48"/>
<path d="M158.712 12.452V10.4H150.792V12.722H155.724L153.24 15.962L154.194 17.402H154.734C156.012 17.402 156.75 18.086 156.75 19.112C156.75 20.174 156.012 20.822 154.734 20.822C153.582 20.822 152.844 20.336 152.538 19.364L150.414 20.588C151.116 22.334 152.772 23.252 154.734 23.252C155.994 23.252 157.056 22.892 157.92 22.154C158.802 21.416 159.234 20.408 159.234 19.112C159.234 17.33 158.064 16.016 156.354 15.512L158.712 12.452Z" fill="#002A48"/>
<path d="M204.338 18.554V15.566H201.836V18.554H198.56L202.736 10.4H200.072L195.878 18.554V20.858H201.836V23H204.338V20.858H205.688V18.554H204.338Z" fill="#002A48"/>
<path d="M242.992 22.784C243.586 22.19 243.586 21.218 242.992 20.624C242.398 20.03 241.426 20.03 240.832 20.624C240.238 21.218 240.238 22.19 240.832 22.784C241.426 23.378 242.398 23.378 242.992 22.784ZM247.808 22.784C248.402 22.19 248.402 21.218 247.808 20.624C247.214 20.03 246.242 20.03 245.648 20.624C245.054 21.218 245.054 22.19 245.648 22.784C246.242 23.378 247.214 23.378 247.808 22.784ZM252.625 22.784C253.219 22.19 253.219 21.218 252.625 20.624C252.031 20.03 251.059 20.03 250.465 20.624C249.871 21.218 249.871 22.19 250.465 22.784C251.059 23.378 252.031 23.378 252.625 22.784Z" fill="#002A48"/>
<path d="M291.91 23V20.606H287.176L289.642 18.14C291.028 16.754 291.712 15.422 291.712 14.108C291.712 12.902 291.298 11.93 290.488 11.228C289.678 10.508 288.688 10.148 287.554 10.148C285.772 10.148 284.188 11.084 283.396 12.812L285.484 14.036C285.934 13.046 286.636 12.56 287.59 12.56C288.544 12.56 289.228 13.208 289.228 14.198C289.228 14.864 288.742 15.71 287.788 16.718L283.486 21.146V23H291.91ZM300.359 16.448C301.241 15.818 301.673 14.954 301.673 13.838C301.673 12.668 301.277 11.768 300.503 11.12C299.729 10.472 298.757 10.148 297.587 10.148C296.417 10.148 295.445 10.472 294.653 11.12C293.879 11.768 293.483 12.668 293.483 13.838C293.483 14.936 293.915 15.818 294.797 16.448C293.645 17.15 293.069 18.158 293.069 19.49C293.069 21.812 294.779 23.252 297.587 23.252C300.377 23.252 302.105 21.812 302.105 19.49C302.105 18.158 301.529 17.15 300.359 16.448ZM298.757 12.884C299.063 13.154 299.207 13.514 299.207 13.964C299.207 14.414 299.063 14.792 298.757 15.062C298.451 15.332 298.073 15.458 297.587 15.458C297.101 15.458 296.723 15.332 296.417 15.062C296.111 14.792 295.967 14.414 295.967 13.964C295.967 13.514 296.111 13.154 296.417 12.884C296.723 12.614 297.101 12.488 297.587 12.488C298.073 12.488 298.451 12.614 298.757 12.884ZM299.639 19.166C299.639 20.264 298.811 20.912 297.587 20.912C296.363 20.912 295.535 20.264 295.535 19.166C295.535 18.086 296.363 17.438 297.587 17.438C298.811 17.438 299.639 18.086 299.639 19.166Z" fill="#002A48"/>
<path d="M334 17L344 17M344 17L340 21M344 17L340 13" stroke="#002A48" stroke-width="2" stroke-linecap="round" stroke-linejoin="round"/>
</svg>
